<svg width="48" height="48" viewBox="0 0 48 48" fill="none" xmlns="http://www.w3.org/2000/svg">
<g clip-path="url(#clip0_16_361)">
<path d="M24 0C10.751 0 0 10.751 0 24C0 37.249 10.751 48 24 48C37.249 48 48 37.249 48 24C48 10.751 37.249 0 24 0ZM24 1C36.708 1 47 11.291 47 24C47 36.709 36.708 47 24 47C11.292 47 1 36.709 1 24C1 11.291 11.292 1 24 1ZM23 10V12H20V15.998H17V19.992L23.656 17.557C23.757 17.52 23.863 17.5 23.971 17.497C24.004 17.495 24.037 17.496 24.071 17.497C24.171 17.507 24.269 17.523 24.363 17.557L31 20.053V15.998H28V12H25V10H23ZM24 18.465L11 23.223L16.047 38H31.969L37 23.342L24.012 18.465L24.006 18.475L24 18.465Z" fill="#123B63"/>
</g>
<defs>
<clipPath id="clip0_16_361">
<rect width="48" height="48" fill="white"/>
</clipPath>
</defs>
</svg>
